# xmcd CD database file
#
# Track frame offsets:
#	150
#	32927
#	62992
#	87390
#	105172
#	129635
#	148812
#	174862
#	189277
#	211050
#	231102
#
# Disc length: 3410 seconds
#
# Revision: 0
# Processed by: cddbd v1.5PL3 Copyright (c) Steve Scherf et al.
# Submitted via: CDex 1.51
#
DISCID=920d500b
DTITLE=Hedvig Hanson - Let Me Love You
DYEAR=2000
DGENRE=Jazz
TTITLE0=Ballad 2000
TTITLE1=Sweet Dreamin'
TTITLE2=It's Too Late
TTITLE3=A Swing For You
TTITLE4=Let Me Love You
TTITLE5=Someday (I'll Be Over You)
TTITLE6=Still Love You So
TTITLE7=It's All Right With Me
TTITLE8=Sometimes I'm Dreamin'
TTITLE9=Thrill Is Gone
TTITLE10=I'm Too Shy To Tell You
EXTD=YEAR: 2000
EXTT0=
EXTT1=
EXTT2=
EXTT3=
EXTT4=
EXTT5=
EXTT6=
EXTT7=
EXTT8=
EXTT9=
EXTT10=
PLAYORDER=
